<svg width="720" height="520" viewBox="0 0 720 520" fill="none" xmlns="http://www.w3.org/2000/svg" role="img" aria-labelledby="title desc">
  <title id="title">Issue map visualization</title>
  <desc id="desc">A stylized civic issue map with neutral status dots and summary cards.</desc>
  <rect width="720" height="520" rx="24" fill="#FFFFFF"/>
  <rect x="28" y="30" width="664" height="460" rx="18" fill="#EEF3EE" stroke="#D7DFD6"/>
  <path d="M355 78C390 98 414 130 422 168C429 203 463 218 486 244C514 276 498 327 462 340C429 352 408 371 392 402C377 431 334 446 306 427C279 408 267 369 235 355C201 340 177 312 184 275C191 240 222 225 236 194C252 157 254 119 289 98C310 85 331 64 355 78Z" fill="#F8FAF7" stroke="#AEBBAD" stroke-width="3"/>
  <path d="M321 89C303 123 317 166 294 198C274 227 231 232 220 266C210 296 240 315 262 333C291 356 289 405 323 418" stroke="#D1D9CE" stroke-width="8" stroke-linecap="round"/>
  <path d="M397 153C367 179 367 225 391 253C412 278 466 282 475 317" stroke="#D1D9CE" stroke-width="8" stroke-linecap="round"/>
  <circle cx="306" cy="166" r="13" fill="#315F9F"/>
  <circle cx="306" cy="166" r="24" stroke="#315F9F" stroke-opacity="0.22" stroke-width="8"/>
  <circle cx="404" cy="252" r="13" fill="#B84B45"/>
  <circle cx="404" cy="252" r="24" stroke="#B84B45" stroke-opacity="0.22" stroke-width="8"/>
  <circle cx="330" cy="356" r="13" fill="#2F7D59"/>
  <circle cx="330" cy="356" r="24" stroke="#2F7D59" stroke-opacity="0.22" stroke-width="8"/>
  <circle cx="474" cy="318" r="13" fill="#C79224"/>
  <circle cx="474" cy="318" r="24" stroke="#C79224" stroke-opacity="0.22" stroke-width="8"/>
  <g filter="url(#shadow)">
    <rect x="54" y="62" width="184" height="94" rx="8" fill="#FFFFFF"/>
    <rect x="72" y="82" width="68" height="8" rx="4" fill="#2F7D59"/>
    <rect x="72" y="104" width="128" height="10" rx="5" fill="#DCE4DA"/>
    <rect x="72" y="124" width="96" height="10" rx="5" fill="#DCE4DA"/>
  </g>
  <g filter="url(#shadow)">
    <rect x="492" y="96" width="160" height="84" rx="8" fill="#FFFFFF"/>
    <rect x="510" y="116" width="52" height="8" rx="4" fill="#315F9F"/>
    <rect x="510" y="138" width="104" height="10" rx="5" fill="#DCE4DA"/>
    <rect x="510" y="156" width="80" height="10" rx="5" fill="#DCE4DA"/>
  </g>
  <g filter="url(#shadow)">
    <rect x="74" y="342" width="184" height="96" rx="8" fill="#FFFFFF"/>
    <rect x="92" y="362" width="72" height="8" rx="4" fill="#B84B45"/>
    <rect x="92" y="386" width="130" height="10" rx="5" fill="#DCE4DA"/>
    <rect x="92" y="408" width="94" height="10" rx="5" fill="#DCE4DA"/>
  </g>
  <g filter="url(#shadow)">
    <rect x="486" y="358" width="156" height="78" rx="8" fill="#FFFFFF"/>
    <rect x="504" y="378" width="58" height="8" rx="4" fill="#C79224"/>
    <rect x="504" y="400" width="98" height="10" rx="5" fill="#DCE4DA"/>
  </g>
  <defs>
    <filter id="shadow" x="34" y="42" width="638" height="416" filterUnits="userSpaceOnUse" color-interpolation-filters="sRGB">
      <feDropShadow dx="0" dy="12" stdDeviation="12" flood-color="#1C2420" flood-opacity="0.11"/>
    </filter>
  </defs>
</svg>
